<svg xmlns="http://www.w3.org/2000/svg" width="1000" height="540" viewBox="0 0 1000 540">
<rect width="100%" height="100%" fill="#ffffff"/>
<text x="500" y="30" text-anchor="middle" font-family="Arial" font-size="24" font-weight="700">Team Reward Curves on Comparable Axes</text>
<line x1="90" y1="56.0" x2="960" y2="56.0" stroke="#d8dee4" stroke-width="1"/>
<text x="78" y="61.0" text-anchor="end" font-family="Arial" font-size="14" fill="#344054">1.0</text>
<line x1="90" y1="136.4" x2="960" y2="136.4" stroke="#d8dee4" stroke-width="1"/>
<text x="78" y="141.4" text-anchor="end" font-family="Arial" font-size="14" fill="#344054">0.8</text>
<line x1="90" y1="216.8" x2="960" y2="216.8" stroke="#d8dee4" stroke-width="1"/>
<text x="78" y="221.8" text-anchor="end" font-family="Arial" font-size="14" fill="#344054">0.6</text>
<line x1="90" y1="297.2" x2="960" y2="297.2" stroke="#d8dee4" stroke-width="1"/>
<text x="78" y="302.2" text-anchor="end" font-family="Arial" font-size="14" fill="#344054">0.4</text>
<line x1="90" y1="377.6" x2="960" y2="377.6" stroke="#d8dee4" stroke-width="1"/>
<text x="78" y="382.6" text-anchor="end" font-family="Arial" font-size="14" fill="#344054">0.2</text>
<line x1="90" y1="458.0" x2="960" y2="458.0" stroke="#d8dee4" stroke-width="1"/>
<text x="78" y="463.0" text-anchor="end" font-family="Arial" font-size="14" fill="#344054">0.0</text>
<line x1="90.0" y1="56" x2="90.0" y2="458" stroke="#eef2f6" stroke-width="1"/>
<text x="90.0" y="486" text-anchor="middle" font-family="Arial" font-size="14" fill="#344054">0</text>
<line x1="264.0" y1="56" x2="264.0" y2="458" stroke="#eef2f6" stroke-width="1"/>
<text x="264.0" y="486" text-anchor="middle" font-family="Arial" font-size="14" fill="#344054">20</text>
<line x1="438.0" y1="56" x2="438.0" y2="458" stroke="#eef2f6" stroke-width="1"/>
<text x="438.0" y="486" text-anchor="middle" font-family="Arial" font-size="14" fill="#344054">40</text>
<line x1="612.0" y1="56" x2="612.0" y2="458" stroke="#eef2f6" stroke-width="1"/>
<text x="612.0" y="486" text-anchor="middle" font-family="Arial" font-size="14" fill="#344054">60</text>
<line x1="786.0" y1="56" x2="786.0" y2="458" stroke="#eef2f6" stroke-width="1"/>
<text x="786.0" y="486" text-anchor="middle" font-family="Arial" font-size="14" fill="#344054">80</text>
<line x1="960.0" y1="56" x2="960.0" y2="458" stroke="#eef2f6" stroke-width="1"/>
<text x="960.0" y="486" text-anchor="middle" font-family="Arial" font-size="14" fill="#344054">100</text>
<rect x="90" y="56" width="870" height="402" fill="none" stroke="#667085" stroke-width="1.5"/>
<polyline points="90.0,390.5 93.0,406.0 96.1,415.0 99.1,410.3 102.2,402.4 105.2,442.9 108.3,445.6 111.3,433.0 114.3,438.5 117.4,437.2 120.4,431.4 123.5,426.7 126.5,425.5 129.5,419.0 132.6,417.9 135.6,412.6 138.7,408.0 141.7,405.2 144.8,403.0 147.8,398.8 150.8,458.0 153.9,453.8 156.9,449.5 160.0,448.6 163.0,451.4 166.0,435.3 169.1,429.0 172.1,431.0 175.2,424.5 178.2,419.7 181.3,419.5 184.3,418.1 187.3,415.2 190.4,417.5 193.4,414.4 196.5,414.2 199.5,417.5 202.6,433.5 205.6,433.3 208.6,436.1 211.7,374.7 214.7,375.9 217.8,376.3 220.8,381.2 223.8,376.8 226.9,410.6 229.9,412.2 233.0,408.7 236.0,437.6 239.1,437.6 242.1,435.0 245.1,432.4 248.2,430.1 251.2,428.3 254.3,427.0 257.3,425.6 260.3,424.6 263.4,408.3 266.4,408.4 269.5,405.5 272.5,404.1 275.6,401.4 278.6,399.1 281.6,393.7 284.7,391.8 287.7,357.2 290.8,353.8 293.8,351.2 296.9,319.5 299.9,319.8 302.9,318.2 306.0,319.0 309.0,318.2 312.1,321.9 315.1,321.8 318.1,321.7 321.2,317.7 324.2,315.0 327.3,312.2 330.3,312.2 333.4,311.6 336.4,312.6 339.4,304.4 342.5,303.7 345.5,303.6 348.6,304.6 351.6,305.0 354.7,303.1 357.7,304.1 360.7,302.7 363.8,303.8 366.8,304.7 369.9,306.2 372.9,294.7 375.9,287.2 379.0,287.4 382.0,287.4 385.1,287.7 388.1,281.9 391.2,276.1 394.2,269.7 397.2,269.4 400.3,269.6 403.3,267.2 406.4,262.6 409.4,257.2 412.4,258.9 415.5,263.2 418.5,256.9 421.6,253.1 424.6,247.3 427.7,245.9 430.7,242.9 433.7,248.7 436.8,250.8 439.8,243.8 442.9,244.6 445.9,244.4 449.0,244.7 452.0,242.3 455.0,244.4 458.1,249.8 461.1,255.3 464.2,247.6 467.2,244.4 470.2,239.8 473.3,231.9 476.3,225.3 479.4,227.7 482.4,224.4 485.5,223.3 488.5,216.3 491.5,208.8 494.6,198.2 497.6,202.7 500.7,200.0 503.7,186.8 506.7,177.8 509.8,181.7 512.8,177.6 515.9,170.0 518.9,156.2 522.0,146.6 525.0,143.0 528.0,139.0 531.1,147.5 534.1,140.9 537.2,136.5 540.2,139.6 543.3,145.3 546.3,140.9 549.3,136.5 552.4,133.2 555.4,130.5 558.5,130.1 561.5,127.0 564.5,138.7 567.6,147.3 570.6,136.6 573.7,147.3 576.7,146.8 579.8,153.1 582.8,164.4 585.8,176.2 588.9,187.2 591.9,175.0 595.0,175.1 598.0,173.4 601.0,160.5 604.1,148.9 607.1,159.2 610.2,157.9 613.2,157.6 616.3,156.7 619.3,157.1 622.3,168.6 625.4,168.3 628.4,156.3 631.5,156.2 634.5,144.0 637.6,143.9 640.6,132.0 643.6,120.2 646.7,106.9 649.7,94.5 652.8,93.6 655.8,105.1 658.8,116.5 661.9,116.3 664.9,116.2 668.0,102.8 671.0,102.1 674.1,101.9 677.1,102.5 680.1,89.7 683.2,76.7 686.2,63.9 689.3,63.2 692.3,61.5 695.3,73.0 698.4,72.2 701.4,71.5 704.5,69.9 707.5,69.4 710.6,69.1 713.6,68.7 716.6,56.2 719.7,56.0 722.7,68.8 725.8,81.0 728.8,139.0 731.9,153.8 734.9,166.3 737.9,179.0 741.0,193.2 744.0,207.0 747.1,220.9 750.1,234.4 753.1,248.7 756.2,249.4 759.2,262.6 762.3,275.5 765.3,277.1 768.4,277.8 771.4,279.6 774.4,281.0 777.5,293.7 780.5,281.7 783.6,269.6 786.6,256.7 789.7,200.4 792.7,186.7 795.7,187.5 798.8,176.3 801.8,163.5 804.9,152.1 807.9,139.6 810.9,139.7 814.0,126.3 817.0,115.5 820.1,103.1 823.1,104.8 826.2,117.8 829.2,118.4 832.2,130.5 835.3,142.2 838.3,131.7 841.4,144.7 844.4,157.4 847.4,158.6 850.5,170.9 853.5,183.2 856.6,171.6 859.6,170.8 862.7,169.8 865.7,181.7 868.7,181.9 871.8,170.1 874.8,183.1 877.9,182.1 880.9,195.0 884.0,181.7 887.0,180.6 890.0,180.0 893.1,180.1 896.1,179.9 899.2,179.6 902.2,167.6 905.2,168.1 908.3,181.3 911.3,182.3 914.4,170.1 917.4,170.1 920.5,183.5 923.5,184.7 926.5,172.3 929.6,172.0 932.6,171.2 935.7,158.5 938.7,158.8 941.7,144.8 944.8,143.7 947.8,143.5 950.9,143.0 953.9,194.8 957.0,182.7 960.0,180.9" fill="none" stroke="#0f766e" stroke-width="3" stroke-linejoin="round" stroke-linecap="round"/>
<polyline points="90.0,458.0 127.8,432.0 165.7,437.2 203.5,405.9 241.3,369.0 279.1,283.1 317.0,190.6 354.8,141.9 392.6,59.5 430.4,68.7 468.3,115.1 506.1,117.3 543.9,56.0 581.7,117.7 619.6,159.1 657.4,202.3 695.2,305.4 733.0,319.4 770.9,371.7 808.7,362.3 846.5,360.6 884.3,252.8 922.2,232.9 960.0,231.8" fill="none" stroke="#b42318" stroke-width="3" stroke-linejoin="round" stroke-linecap="round"/>
<text x="525.0" y="522" text-anchor="middle" font-family="Arial" font-size="17" fill="#101828">Training progress (%)</text>
<text x="22" y="257.0" text-anchor="middle" font-family="Arial" font-size="17" fill="#101828" transform="rotate(-90 22 257.0)">Normalized moving-average reward</text>
<rect x="98" y="58" width="380" height="62" rx="6" fill="#ffffff" stroke="#d0d5dd"/>
<line x1="110" y1="80" x2="152" y2="80" stroke="#0f766e" stroke-width="4"/>
<text x="164" y="85" font-family="Arial" font-size="15" fill="#101828">Obstacle avoidance: sonar PPO</text>
<line x1="110" y1="106" x2="152" y2="106" stroke="#b42318" stroke-width="4"/>
<text x="164" y="111" font-family="Arial" font-size="15" fill="#101828">Trajectory tracking: full path PPO</text>
</svg>